<?xml version="1.0" standalone="no"?>
<!DOCTYPE svg PUBLIC "-//W3C//DTD SVG 20010904//EN"
 "http://www.w3.org/TR/2001/REC-SVG-20010904/DTD/svg10.dtd">
<svg version="1.0" xmlns="http://www.w3.org/2000/svg"
 width="512.000000pt" height="512.000000pt" viewBox="0 0 512.000000 512.000000"
 preserveAspectRatio="xMidYMid meet">
<metadata>
Created by potrace 1.14, written by Peter Selinger 2001-2017
</metadata>
<g transform="translate(0.000000,512.000000) scale(0.100000,-0.100000)"
fill="#000000" stroke="none">
<path d="M140 4837 c-51 -13 -95 -50 -119 -100 l-21 -44 0 -2131 c0 -1598 3
-2138 12 -2159 6 -16 24 -45 40 -65 15 -20 28 -42 28 -47 0 -6 6 -12 13 -13
55 -7 4859 -3 4888 5 50 12 116 77 129 126 7 26 9 712 8 2174 l-3 2135 -30 43
c-16 23 -48 52 -70 63 l-40 21 -2400 1 c-1426 0 -2414 -3 -2435 -9z m1986
-160 c6 -3 10 -120 9 -289 l0 -283 -605 0 -605 0 -3 284 c-1 166 2 287 7 290
12 8 1185 6 1197 -2z m1392 4 c9 -1 12 -66 12 -289 l0 -287 -612 0 -613 0 -3
287 -2 287 22 3 c19 2 1155 2 1196 -1z m1430 -5 c11 -12 9 -565 -3 -569 -5 -2
-289 -3 -630 -3 l-620 1 0 285 0 284 23 6 c35 8 1221 4 1230 -4z m-4193 -1036
l0 -295 -295 -3 -295 -2 0 300 0 300 295 -2 295 -3 0 -295z m1380 -2 l1 -298
-608 0 -608 0 0 300 0 300 608 -2 607 -3 0 -297z m1395 2 l0 -300 -615 0 -615
0 0 300 0 300 615 0 615 0 0 -300z m1425 0 l0 -300 -630 0 -630 0 0 300 0 300
630 0 630 0 0 -300z m-4200 -773 l1 -307 -296 0 -295 0 0 308 -1 307 296 0
295 0 0 -308z m1365 304 c14 -1 16 -39 16 -306 l-1 -305 -607 0 -608 0 0 308
0 307 593 -1 c325 -1 599 -2 607 -3z m1410 -303 l0 -308 -615 0 -615 0 0 303
c0 167 2 306 4 308 2 2 279 4 615 4 l611 0 0 -307z m1420 303 c3 0 6 -138 5
-306 l0 -305 -630 0 -630 0 1 303 c1 166 2 304 3 307 1 4 1232 5 1251 1z
m-4200 -780 c4 0 6 -127 6 -281 l0 -280 -26 0 c-23 -1 -483 -1 -540 0 l-26 0
2 283 c1 155 2 282 3 282 4 1 577 -3 581 -4z m1386 -278 l0 -283 -70 0 c-110
-1 -992 -1 -1073 0 l-73 0 0 283 0 282 608 0 607 0 1 -282z m1394 0 l0 -283
-27 0 c-68 0 -1160 -1 -1180 0 l-23 0 0 283 0 283 615 -1 615 0 0 -282z m1421
277 c1 -3 2 -130 3 -282 l2 -278 -121 0 c-186 -1 -960 -1 -1055 -1 l-86 1 2
283 c1 155 2 282 3 282 25 4 1251 -1 1252 -5z m-4200 -730 c4 -12 5 -516 2
-525 -2 -7 -104 -10 -291 -9 -158 1 -289 2 -292 3 -3 0 -5 119 -6 264 0 200 3
263 13 267 7 3 138 5 293 5 154 0 281 -2 281 -5z m1374 1 c7 -1 10 -87 9 -263
0 -145 -2 -265 -3 -268 0 -3 -273 -5 -606 -5 l-605 0 0 267 c0 169 4 268 10
270 8 2 1162 2 1195 -1z m1403 -264 c1 -147 -1 -268 -5 -268 -5 -1 -281 -2
-615 -3 l-608 -1 0 267 c0 168 4 268 10 270 5 2 281 3 612 2 l603 -1 3 -266z
m1423 263 c1 -3 2 -124 3 -270 l2 -265 -631 0 -630 0 -1 260 c0 143 1 265 3
270 3 10 1252 15 1254 5z m-4340 -700 l145 0 0 -257 -1 -258 -285 -2 c-156 -1
-289 2 -295 7 -7 6 -10 94 -10 256 l0 248 23 6 c13 3 80 4 150 3 70 -1 192 -2
273 -3z m1469 0 l55 0 0 -257 0 -258 -607 -2 -608 -1 0 258 0 259 68 3 c37 2
285 2 552 1 267 -2 510 -3 540 -3z m1373 0 l77 0 0 -259 0 -259 -615 0 -615 0
0 258 0 259 38 3 c31 2 267 2 1115 -2z m1492 -4 c7 -2 10 -88 9 -247 -1 -134
-2 -249 -3 -256 -1 -8 -161 -11 -628 -10 l-628 2 0 255 0 255 120 5 c132 5
1114 2 1130 -4z"/>
<path d="M2430 3832 c-6 -2 -10 -69 -10 -173 l0 -169 492 2 493 3 0 168 c1
143 -2 167 -15 168 -50 3 -952 3 -960 1z"/>
</g>
</svg>
